<svg width="22" height="22" viewBox="0 0 22 22" fill="none" xmlns="http://www.w3.org/2000/svg">
<path d="M14.8393 8.95263C14.9005 9.0137 14.949 9.08623 14.9821 9.16606C15.0152 9.24589 15.0322 9.33146 15.0322 9.41788C15.0322 9.5043 15.0152 9.58988 14.9821 9.66971C14.949 9.74954 14.9005 9.82207 14.8393 9.88314L10.2361 14.4864C10.175 14.5475 10.1025 14.5961 10.0226 14.6291C9.9428 14.6622 9.85723 14.6793 9.77081 14.6793C9.68439 14.6793 9.59882 14.6622 9.51898 14.6291C9.43915 14.5961 9.36662 14.5475 9.30555 14.4864L7.33272 12.5136C7.20933 12.3902 7.14001 12.2228 7.14001 12.0483C7.14001 11.8738 7.20933 11.7065 7.33272 11.5831C7.45612 11.4597 7.62348 11.3903 7.79798 11.3903C7.97249 11.3903 8.13985 11.4597 8.26324 11.5831L9.77081 13.0915L13.9088 8.95263C13.9699 8.89148 14.0424 8.84298 14.1222 8.80989C14.2021 8.77679 14.2876 8.75976 14.3741 8.75976C14.4605 8.75976 14.5461 8.77679 14.6259 8.80989C14.7057 8.84298 14.7783 8.89148 14.8393 8.95263ZM19.6349 11.3907C19.6349 13.0815 19.1336 14.7344 18.1942 16.1402C17.2548 17.5461 15.9197 18.6418 14.3576 19.2889C12.7954 19.9359 11.0765 20.1052 9.41822 19.7754C7.75989 19.4455 6.23662 18.6313 5.04103 17.4357C3.84544 16.2401 3.03124 14.7168 2.70138 13.0585C2.37152 11.4002 2.54081 9.68129 3.18786 8.11918C3.83491 6.55707 4.93064 5.22192 6.3365 4.28255C7.74237 3.34318 9.39521 2.8418 11.086 2.8418C13.3526 2.84419 15.5257 3.74565 17.1284 5.34836C18.7311 6.95107 19.6325 9.12413 19.6349 11.3907ZM18.3197 11.3907C18.3197 9.96002 17.8955 8.56146 17.1006 7.37188C16.3058 6.18231 15.176 5.25515 13.8542 4.70765C12.5325 4.16015 11.078 4.01689 9.6748 4.29601C8.2716 4.57512 6.98268 5.26406 5.97103 6.27571C4.95938 7.28737 4.27044 8.57629 3.99132 9.97949C3.71221 11.3827 3.85546 12.8371 4.40296 14.1589C4.95046 15.4807 5.87762 16.6105 7.0672 17.4053C8.25677 18.2002 9.65534 18.6244 11.086 18.6244C13.0039 18.6222 14.8425 17.8594 16.1986 16.5033C17.5547 15.1472 18.3175 13.3085 18.3197 11.3907Z" fill="#0D745C"/>
</svg>
