<svg width="13" height="12" viewBox="0 0 13 12" fill="none" xmlns="http://www.w3.org/2000/svg">
<path d="M11.1773 4.81969C11.0006 4.635 10.8177 4.44469 10.7488 4.27734C10.6851 4.12406 10.6813 3.87 10.6776 3.62391C10.6706 3.16641 10.6631 2.64797 10.3026 2.2875C9.94212 1.92703 9.42368 1.91953 8.96618 1.9125C8.72009 1.90875 8.46603 1.905 8.31274 1.84125C8.14587 1.77234 7.95509 1.58953 7.7704 1.41281C7.44696 1.10203 7.07946 0.75 6.59009 0.75C6.10071 0.75 5.73368 1.10203 5.40978 1.41281C5.22509 1.58953 5.03478 1.77234 4.86743 1.84125C4.71509 1.905 4.46009 1.90875 4.21399 1.9125C3.75649 1.91953 3.23806 1.92703 2.87759 2.2875C2.51712 2.64797 2.51196 3.16641 2.50259 3.62391C2.49884 3.87 2.49509 4.12406 2.43134 4.27734C2.36243 4.44422 2.17962 4.635 2.0029 4.81969C1.69212 5.14313 1.34009 5.51062 1.34009 6C1.34009 6.48938 1.69212 6.85641 2.0029 7.18031C2.17962 7.365 2.36243 7.55531 2.43134 7.72266C2.49509 7.87594 2.49884 8.13 2.50259 8.37609C2.50962 8.83359 2.51712 9.35203 2.87759 9.7125C3.23806 10.073 3.75649 10.0805 4.21399 10.0875C4.46009 10.0912 4.71415 10.095 4.86743 10.1588C5.03431 10.2277 5.22509 10.4105 5.40978 10.5872C5.73321 10.898 6.10071 11.25 6.59009 11.25C7.07946 11.25 7.44649 10.898 7.7704 10.5872C7.95509 10.4105 8.1454 10.2277 8.31274 10.1588C8.46603 10.095 8.72009 10.0912 8.96618 10.0875C9.42368 10.0805 9.94212 10.073 10.3026 9.7125C10.6631 9.35203 10.6706 8.83359 10.6776 8.37609C10.6813 8.13 10.6851 7.87594 10.7488 7.72266C10.8177 7.55578 11.0006 7.365 11.1773 7.18031C11.4881 6.85687 11.8401 6.48938 11.8401 6C11.8401 5.51062 11.4881 5.14359 11.1773 4.81969ZM10.6359 6.66141C10.4113 6.89578 10.1788 7.13813 10.0556 7.43578C9.93743 7.72172 9.93227 8.04844 9.92759 8.36484C9.9229 8.69297 9.91774 9.03656 9.77196 9.18188C9.62618 9.32719 9.28493 9.33281 8.95493 9.3375C8.63853 9.34219 8.31181 9.34734 8.02587 9.46547C7.72821 9.58875 7.48587 9.82125 7.25149 10.0458C7.01712 10.2703 6.77759 10.5 6.59009 10.5C6.40259 10.5 6.16118 10.2694 5.92868 10.0458C5.69618 9.82219 5.45196 9.58875 5.15431 9.46547C4.86837 9.34734 4.54165 9.34219 4.22524 9.3375C3.89712 9.33281 3.55353 9.32766 3.40821 9.18188C3.2629 9.03609 3.25728 8.69484 3.25259 8.36484C3.2479 8.04844 3.24274 7.72172 3.12462 7.43578C3.00134 7.13813 2.76884 6.89578 2.54431 6.66141C2.31978 6.42703 2.09009 6.1875 2.09009 6C2.09009 5.8125 2.32071 5.57109 2.54431 5.33859C2.7679 5.10609 3.00134 4.86188 3.12462 4.56422C3.24274 4.27828 3.2479 3.95156 3.25259 3.63516C3.25728 3.30703 3.26243 2.96344 3.40821 2.81813C3.55399 2.67281 3.89524 2.66719 4.22524 2.6625C4.54165 2.65781 4.86837 2.65266 5.15431 2.53453C5.45196 2.41125 5.69431 2.17875 5.92868 1.95422C6.16306 1.72969 6.40259 1.5 6.59009 1.5C6.77759 1.5 7.01899 1.73062 7.25149 1.95422C7.48399 2.17781 7.72821 2.41125 8.02587 2.53453C8.31181 2.65266 8.63853 2.65781 8.95493 2.6625C9.28306 2.66719 9.62665 2.67234 9.77196 2.81813C9.91728 2.96391 9.9229 3.30516 9.92759 3.63516C9.93227 3.95156 9.93743 4.27828 10.0556 4.56422C10.1788 4.86188 10.4113 5.10422 10.6359 5.33859C10.8604 5.57297 11.0901 5.8125 11.0901 6C11.0901 6.1875 10.8595 6.42891 10.6359 6.66141ZM7.15259 8.4375C7.15259 8.54875 7.1196 8.65751 7.05779 8.75001C6.99598 8.84251 6.90813 8.91461 6.80535 8.95718C6.70256 8.99976 6.58946 9.0109 6.48035 8.98919C6.37123 8.96749 6.27101 8.91391 6.19234 8.83525C6.11367 8.75658 6.0601 8.65635 6.0384 8.54724C6.01669 8.43812 6.02783 8.32502 6.07041 8.22224C6.11298 8.11946 6.18508 8.03161 6.27758 7.9698C6.37008 7.90799 6.47884 7.875 6.59009 7.875C6.73927 7.875 6.88235 7.93426 6.98783 8.03975C7.09332 8.14524 7.15259 8.28832 7.15259 8.4375ZM8.46509 5.0625C8.46509 5.87719 7.82009 6.55922 6.96509 6.71625V6.75C6.96509 6.84946 6.92558 6.94484 6.85525 7.01517C6.78493 7.08549 6.68954 7.125 6.59009 7.125C6.49063 7.125 6.39525 7.08549 6.32492 7.01517C6.2546 6.94484 6.21509 6.84946 6.21509 6.75V6.375C6.21509 6.27554 6.2546 6.18016 6.32492 6.10983C6.39525 6.03951 6.49063 6 6.59009 6C7.21024 6 7.71509 5.57812 7.71509 5.0625C7.71509 4.54688 7.21024 4.125 6.59009 4.125C5.96993 4.125 5.46509 4.54688 5.46509 5.0625V5.25C5.46509 5.34946 5.42558 5.44484 5.35525 5.51516C5.28493 5.58549 5.18954 5.625 5.09009 5.625C4.99063 5.625 4.89525 5.58549 4.82492 5.51516C4.7546 5.44484 4.71509 5.34946 4.71509 5.25V5.0625C4.71509 4.13203 5.55603 3.375 6.59009 3.375C7.62415 3.375 8.46509 4.13203 8.46509 5.0625Z" fill="#050505"/>
</svg>
