<svg width="13" height="12" viewBox="0 0 13 12" fill="none" xmlns="http://www.w3.org/2000/svg">
<path d="M2.79528 3C2.79528 2.90054 2.83479 2.80516 2.90511 2.73484C2.97544 2.66451 3.07082 2.625 3.17028 2.625H3.92028V1.875C3.92028 1.77554 3.95979 1.68016 4.03011 1.60984C4.10044 1.53951 4.19582 1.5 4.29528 1.5C4.39473 1.5 4.49012 1.53951 4.56044 1.60984C4.63077 1.68016 4.67028 1.77554 4.67028 1.875V2.625H5.42028C5.51973 2.625 5.61512 2.66451 5.68544 2.73484C5.75577 2.80516 5.79528 2.90054 5.79528 3C5.79528 3.09946 5.75577 3.19484 5.68544 3.26516C5.61512 3.33549 5.51973 3.375 5.42028 3.375H4.67028V4.125C4.67028 4.22446 4.63077 4.31984 4.56044 4.39016C4.49012 4.46049 4.39473 4.5 4.29528 4.5C4.19582 4.5 4.10044 4.46049 4.03011 4.39016C3.95979 4.31984 3.92028 4.22446 3.92028 4.125V3.375H3.17028C3.07082 3.375 2.97544 3.33549 2.90511 3.26516C2.83479 3.19484 2.79528 3.09946 2.79528 3ZM9.17028 9H8.79528V8.625C8.79528 8.52554 8.75577 8.43016 8.68544 8.35983C8.61512 8.28951 8.51973 8.25 8.42028 8.25C8.32082 8.25 8.22544 8.28951 8.15511 8.35983C8.08479 8.43016 8.04528 8.52554 8.04528 8.625V9H7.67028C7.57082 9 7.47544 9.03951 7.40511 9.10983C7.33479 9.18016 7.29528 9.27554 7.29528 9.375C7.29528 9.47446 7.33479 9.56984 7.40511 9.64017C7.47544 9.71049 7.57082 9.75 7.67028 9.75H8.04528V10.125C8.04528 10.2245 8.08479 10.3198 8.15511 10.3902C8.22544 10.4605 8.32082 10.5 8.42028 10.5C8.51973 10.5 8.61512 10.4605 8.68544 10.3902C8.75577 10.3198 8.79528 10.2245 8.79528 10.125V9.75H9.17028C9.26973 9.75 9.36512 9.71049 9.43544 9.64017C9.50577 9.56984 9.54528 9.47446 9.54528 9.375C9.54528 9.27554 9.50577 9.18016 9.43544 9.10983C9.36512 9.03951 9.26973 9 9.17028 9ZM11.7953 6.75H11.0453V6C11.0453 5.90054 11.0058 5.80516 10.9354 5.73484C10.8651 5.66451 10.7697 5.625 10.6703 5.625C10.5708 5.625 10.4754 5.66451 10.4051 5.73484C10.3348 5.80516 10.2953 5.90054 10.2953 6V6.75H9.54528C9.44582 6.75 9.35044 6.78951 9.28011 6.85983C9.20979 6.93016 9.17028 7.02554 9.17028 7.125C9.17028 7.22446 9.20979 7.31984 9.28011 7.39017C9.35044 7.46049 9.44582 7.5 9.54528 7.5H10.2953V8.25C10.2953 8.34946 10.3348 8.44484 10.4051 8.51517C10.4754 8.58549 10.5708 8.625 10.6703 8.625C10.7697 8.625 10.8651 8.58549 10.9354 8.51517C11.0058 8.44484 11.0453 8.34946 11.0453 8.25V7.5H11.7953C11.8947 7.5 11.9901 7.46049 12.0604 7.39017C12.1308 7.31984 12.1703 7.22446 12.1703 7.125C12.1703 7.02554 12.1308 6.93016 12.0604 6.85983C11.9901 6.78951 11.8947 6.75 11.7953 6.75ZM10.8254 3.75L4.29528 10.2802C4.15464 10.4207 3.96395 10.4997 3.76512 10.4997C3.56629 10.4997 3.3756 10.4207 3.23496 10.2802L2.26465 9.31078C2.19499 9.24114 2.13973 9.15845 2.10203 9.06744C2.06433 8.97644 2.04492 8.8789 2.04492 8.78039C2.04492 8.68188 2.06433 8.58434 2.10203 8.49334C2.13973 8.40233 2.19499 8.31965 2.26465 8.25L8.79528 1.71984C8.86492 1.65018 8.94761 1.59492 9.03862 1.55722C9.12962 1.51952 9.22716 1.50011 9.32567 1.50011C9.42417 1.50011 9.52171 1.51952 9.61272 1.55722C9.70373 1.59492 9.78641 1.65018 9.85606 1.71984L10.8254 2.68922C10.8951 2.75886 10.9504 2.84155 10.9881 2.93256C11.0258 3.02356 11.0452 3.1211 11.0452 3.21961C11.0452 3.31812 11.0258 3.41566 10.9881 3.50666C10.9504 3.59767 10.8951 3.68035 10.8254 3.75ZM8.26465 5.25L7.29528 4.28016L2.79528 8.78016L3.76465 9.75L8.26465 5.25ZM10.2953 3.21984L9.32543 2.25L7.82543 3.75L8.79528 4.71984L10.2953 3.21984Z" fill="#050505"/>
</svg>
