<svg width="49" height="48" viewBox="0 0 49 48" fill="none" xmlns="http://www.w3.org/2000/svg">
<rect x="0.666504" width="48" height="48" rx="9" fill="#6B96E7" fill-opacity="0.16"/>
<path opacity="0.5" d="M15.6665 22.417C15.6665 19.219 15.6665 17.62 16.0445 17.082C16.4215 16.545 17.9245 16.03 20.9315 15.001L21.5045 14.805C23.0715 14.268 23.8545 14 24.6665 14C25.4775 14 26.2615 14.268 27.8285 14.805L28.4015 15.001C31.4085 16.03 32.9115 16.545 33.2885 17.082C33.6665 17.62 33.6665 19.22 33.6665 22.417V23.991C33.6665 29.629 29.4275 32.366 26.7675 33.527C26.0465 33.842 25.6865 34 24.6665 34C23.6465 34 23.2865 33.842 22.5655 33.527C19.9055 32.365 15.6665 29.63 15.6665 23.991V22.417Z" fill="#336CD7"/>
<path fill-rule="evenodd" clip-rule="evenodd" d="M23.6165 20.4C23.9194 20.1729 24.2879 20.05 24.6665 20.05C25.0452 20.05 25.4136 20.1729 25.7165 20.4L29.1165 22.95C29.1953 23.0091 29.2617 23.0832 29.3119 23.1679C29.362 23.2527 29.395 23.3465 29.409 23.444C29.4229 23.5415 29.4175 23.6408 29.393 23.7362C29.3686 23.8316 29.3256 23.9213 29.2665 24C29.2074 24.0788 29.1334 24.1452 29.0486 24.1954C28.9639 24.2456 28.8701 24.2786 28.7726 24.2925C28.6751 24.3064 28.5758 24.301 28.4804 24.2766C28.385 24.2521 28.2953 24.2091 28.2165 24.15L24.8165 21.6C24.7732 21.5676 24.7206 21.55 24.6665 21.55C24.6124 21.55 24.5598 21.5676 24.5165 21.6L21.1165 24.15C21.0377 24.2091 20.948 24.2521 20.8526 24.2766C20.7572 24.301 20.6579 24.3064 20.5604 24.2925C20.4629 24.2786 20.3691 24.2456 20.2844 24.1954C20.1996 24.1452 20.1256 24.0788 20.0665 24C20.0074 23.9213 19.9644 23.8316 19.94 23.7362C19.9155 23.6408 19.9101 23.5415 19.924 23.444C19.938 23.3465 19.971 23.2527 20.0211 23.1679C20.0713 23.0832 20.1377 23.0091 20.2165 22.95L23.6165 20.4ZM24.2165 23.95C24.3463 23.8527 24.5042 23.8 24.6665 23.8C24.8288 23.8 24.9867 23.8527 25.1165 23.95L27.1165 25.45C27.2756 25.5694 27.3808 25.7471 27.409 25.944C27.4371 26.1409 27.3859 26.3409 27.2665 26.5C27.1472 26.6592 26.9695 26.7644 26.7726 26.7925C26.5757 26.8206 26.3756 26.7694 26.2165 26.65L24.6665 25.488L23.1165 26.65C22.9574 26.7694 22.7574 26.8206 22.5604 26.7925C22.3635 26.7644 22.1859 26.6592 22.0665 26.5C21.9472 26.3409 21.8959 26.1409 21.924 25.944C21.9522 25.7471 22.0574 25.5694 22.2165 25.45L24.2165 23.95Z" fill="#336CD7"/>
</svg>
