<svg width="45" height="44" viewBox="0 0 45 44" fill="none" xmlns="http://www.w3.org/2000/svg">
<rect x="0.666504" width="44" height="44" rx="9" fill="#442781" fill-opacity="0.16"/>
<path d="M27.1675 20.9999C27.3055 20.9999 27.4421 21.0049 27.5775 21.0149C27.6361 20.8536 27.6661 20.6819 27.6675 20.4999V16.4999C27.6675 16.1021 27.5094 15.7206 27.2281 15.4393C26.9468 15.158 26.5653 14.9999 26.1675 14.9999H23.1675V14.4999C23.1703 14.4335 23.1593 14.3673 23.1352 14.3053C23.111 14.2434 23.0743 14.1871 23.0273 14.1401C22.9803 14.0931 22.924 14.0564 22.8621 14.0322C22.8002 14.0081 22.7339 13.9971 22.6675 13.9999C22.3915 13.9999 22.1675 14.2299 22.1675 14.4999V14.9999H19.1675C18.7696 14.9999 18.3881 15.158 18.1068 15.4393C17.8255 15.7206 17.6675 16.1021 17.6675 16.4999V20.4999C17.6675 20.8978 17.8255 21.2793 18.1068 21.5606C18.3881 21.8419 18.7696 21.9999 19.1675 21.9999H24.0045C24.8995 21.3699 25.9905 20.9999 27.1675 20.9999ZM19.6675 18.4999C19.6675 18.2347 19.7728 17.9804 19.9604 17.7928C20.1479 17.6053 20.4022 17.4999 20.6675 17.4999C20.9327 17.4999 21.187 17.6053 21.3746 17.7928C21.5621 17.9804 21.6675 18.2347 21.6675 18.4999C21.6675 18.7652 21.5621 19.0195 21.3746 19.2071C21.187 19.3946 20.9327 19.4999 20.6675 19.4999C20.4022 19.4999 20.1479 19.3946 19.9604 19.2071C19.7728 19.0195 19.6675 18.7652 19.6675 18.4999ZM23.6675 18.4999C23.6675 18.2347 23.7728 17.9804 23.9604 17.7928C24.1479 17.6053 24.4022 17.4999 24.6675 17.4999C24.9327 17.4999 25.187 17.6053 25.3746 17.7928C25.5621 17.9804 25.6675 18.2347 25.6675 18.4999C25.6675 18.7652 25.5621 19.0195 25.3746 19.2071C25.187 19.3946 24.9327 19.4999 24.6675 19.4999C24.4022 19.4999 24.1479 19.3946 23.9604 19.2071C23.7728 19.0195 23.6675 18.7652 23.6675 18.4999ZM21.6675 26.4999C21.6675 25.3949 21.9935 24.3649 22.5545 23.5029H17.9775C17.4976 23.5032 17.0375 23.694 16.6982 24.0334C16.359 24.3728 16.1685 24.8331 16.1685 25.3129V26.0019H16.1735C16.2075 26.7819 16.4215 27.7589 17.2965 28.5569C18.2515 29.4299 19.9015 29.9999 22.6675 29.9999C22.7541 29.9999 22.8395 29.9993 22.9235 29.9979C22.1101 29.0139 21.6659 27.7767 21.6675 26.4999ZM31.6675 26.4999C31.6675 27.6934 31.1934 28.838 30.3494 29.6819C29.5055 30.5258 28.3609 30.9999 27.1675 30.9999C25.974 30.9999 24.8294 30.5258 23.9855 29.6819C23.1416 28.838 22.6675 27.6934 22.6675 26.4999C22.6675 25.3065 23.1416 24.1619 23.9855 23.318C24.8294 22.4741 25.974 21.9999 27.1675 21.9999C28.3609 21.9999 29.5055 22.4741 30.3494 23.318C31.1934 24.1619 31.6675 25.3065 31.6675 26.4999ZM27.6675 24.4999C27.6675 24.3673 27.6148 24.2402 27.521 24.1464C27.4272 24.0526 27.3001 23.9999 27.1675 23.9999C27.0348 23.9999 26.9077 24.0526 26.8139 24.1464C26.7201 24.2402 26.6675 24.3673 26.6675 24.4999V25.9999H25.1675C25.0348 25.9999 24.9077 26.0526 24.8139 26.1464C24.7201 26.2402 24.6675 26.3673 24.6675 26.4999C24.6675 26.6326 24.7201 26.7597 24.8139 26.8535C24.9077 26.9473 25.0348 26.9999 25.1675 26.9999H26.6675V28.4999C26.6675 28.6326 26.7201 28.7597 26.8139 28.8535C26.9077 28.9473 27.0348 28.9999 27.1675 28.9999C27.3001 28.9999 27.4272 28.9473 27.521 28.8535C27.6148 28.7597 27.6675 28.6326 27.6675 28.4999V26.9999H29.1675C29.3001 26.9999 29.4272 26.9473 29.521 26.8535C29.6148 26.7597 29.6675 26.6326 29.6675 26.4999C29.6675 26.3673 29.6148 26.2402 29.521 26.1464C29.4272 26.0526 29.3001 25.9999 29.1675 25.9999H27.6675V24.4999Z" fill="#442781"/>
<path d="M31.6665 26.5C31.6665 27.6935 31.1924 28.8381 30.3485 29.682C29.5046 30.5259 28.36 31 27.1665 31C25.973 31 24.8284 30.5259 23.9845 29.682C23.1406 28.8381 22.6665 27.6935 22.6665 26.5C22.6665 25.3065 23.1406 24.1619 23.9845 23.318C24.8284 22.4741 25.973 22 27.1665 22C28.36 22 29.5046 22.4741 30.3485 23.318C31.1924 24.1619 31.6665 25.3065 31.6665 26.5ZM27.6665 24.5C27.6665 24.3674 27.6138 24.2402 27.5201 24.1464C27.4263 24.0527 27.2991 24 27.1665 24C27.0339 24 26.9067 24.0527 26.813 24.1464C26.7192 24.2402 26.6665 24.3674 26.6665 24.5V26H25.1665C25.0339 26 24.9067 26.0527 24.813 26.1464C24.7192 26.2402 24.6665 26.3674 24.6665 26.5C24.6665 26.6326 24.7192 26.7598 24.813 26.8536C24.9067 26.9473 25.0339 27 25.1665 27H26.6665V28.5C26.6665 28.6326 26.7192 28.7598 26.813 28.8536C26.9067 28.9473 27.0339 29 27.1665 29C27.2991 29 27.4263 28.9473 27.5201 28.8536C27.6138 28.7598 27.6665 28.6326 27.6665 28.5V27H29.1665C29.2991 27 29.4263 26.9473 29.5201 26.8536C29.6138 26.7598 29.6665 26.6326 29.6665 26.5C29.6665 26.3674 29.6138 26.2402 29.5201 26.1464C29.4263 26.0527 29.2991 26 29.1665 26H27.6665V24.5Z" fill="#B0A2CD"/>
</svg>
