<svg width="49" height="48" viewBox="0 0 49 48" fill="none" xmlns="http://www.w3.org/2000/svg">
<rect x="0.333496" width="48" height="48" rx="9" fill="#F16227" fill-opacity="0.16"/>
<path d="M15.3335 23C15.3335 19.229 15.3335 17.343 16.5055 16.172C17.6765 15 19.5625 15 23.3335 15H25.3335C29.1045 15 30.9905 15 32.1615 16.172C33.3335 17.343 33.3335 19.229 33.3335 23V25C33.3335 28.771 33.3335 30.657 32.1615 31.828C30.9905 33 29.1045 33 25.3335 33H23.3335C19.5625 33 17.6765 33 16.5055 31.828C15.3335 30.657 15.3335 28.771 15.3335 25V23Z" fill="#F16227" fill-opacity="0.25"/>
<path d="M24.3335 26C26.5426 26 28.3335 24.2091 28.3335 22C28.3335 19.7909 26.5426 18 24.3335 18C22.1244 18 20.3335 19.7909 20.3335 22C20.3335 24.2091 22.1244 26 24.3335 26Z" fill="#F16227"/>
<path fill-rule="evenodd" clip-rule="evenodd" d="M31.2809 32.253C31.2889 32.3043 31.2795 32.3569 31.2541 32.4022C31.2287 32.4475 31.1888 32.483 31.1409 32.503C29.9399 33 28.1709 33 25.3349 33H23.3349C20.4999 33 18.7299 33 17.5289 32.502C17.4811 32.4821 17.4414 32.4467 17.416 32.4016C17.3906 32.3565 17.3811 32.3042 17.3889 32.253C17.8179 29.292 20.7639 27 24.3349 27C27.9059 27 30.8519 29.292 31.2809 32.253Z" fill="#F16227"/>
</svg>
