<svg width="48" height="48" viewBox="0 0 48 48" fill="none" xmlns="http://www.w3.org/2000/svg">
<rect width="48" height="48" rx="9" fill="#18CF97" fill-opacity="0.16"/>
<path opacity="0.5" d="M14 24C14 25.64 14.425 26.191 15.275 27.296C16.972 29.5 19.818 32 24 32C28.182 32 31.028 29.5 32.725 27.296C33.575 26.192 34 25.639 34 24C34 22.36 33.575 21.809 32.725 20.704C31.028 18.5 28.182 16 24 16C19.818 16 16.972 18.5 15.275 20.704C14.425 21.81 14 22.361 14 24Z" fill="#18CF97"/>
<path fill-rule="evenodd" clip-rule="evenodd" d="M20.25 24C20.25 23.0054 20.6451 22.0516 21.3483 21.3483C22.0516 20.6451 23.0054 20.25 24 20.25C24.9946 20.25 25.9484 20.6451 26.6517 21.3483C27.3549 22.0516 27.75 23.0054 27.75 24C27.75 24.9946 27.3549 25.9484 26.6517 26.6517C25.9484 27.3549 24.9946 27.75 24 27.75C23.0054 27.75 22.0516 27.3549 21.3483 26.6517C20.6451 25.9484 20.25 24.9946 20.25 24ZM21.75 24C21.75 23.4033 21.9871 22.831 22.409 22.409C22.831 21.9871 23.4033 21.75 24 21.75C24.5967 21.75 25.169 21.9871 25.591 22.409C26.0129 22.831 26.25 23.4033 26.25 24C26.25 24.5967 26.0129 25.169 25.591 25.591C25.169 26.0129 24.5967 26.25 24 26.25C23.4033 26.25 22.831 26.0129 22.409 25.591C21.9871 25.169 21.75 24.5967 21.75 24Z" fill="#18CF97"/>
</svg>
