<svg width="49" height="48" viewBox="0 0 49 48" fill="none" xmlns="http://www.w3.org/2000/svg">
<rect x="0.333496" width="48" height="48" rx="9" fill="#561AD8" fill-opacity="0.16"/>
<path opacity="0.5" fill-rule="evenodd" clip-rule="evenodd" d="M26.3335 34H22.3335C18.5625 34 16.6765 34 15.5055 32.828C14.3335 31.657 14.3335 29.771 14.3335 26V22C14.3335 18.229 14.3335 16.343 15.5055 15.172C16.6765 14 18.5725 14 22.3635 14C22.9695 14 23.4545 14 23.8635 14.017C23.8505 14.097 23.8435 14.178 23.8435 14.261L23.8335 17.095C23.8335 18.192 23.8335 19.162 23.9385 19.943C24.0525 20.79 24.3135 21.637 25.0055 22.329C25.6955 23.019 26.5435 23.281 27.3905 23.395C28.1715 23.5 29.1415 23.5 30.2385 23.5H34.2905C34.3335 24.034 34.3335 24.69 34.3335 25.563V26C34.3335 29.771 34.3335 31.657 33.1615 32.828C31.9905 34 30.1045 34 26.3335 34Z" fill="#561AD8"/>
<path d="M18.3335 25.75C18.1346 25.75 17.9438 25.829 17.8032 25.9697C17.6625 26.1103 17.5835 26.3011 17.5835 26.5C17.5835 26.6989 17.6625 26.8897 17.8032 27.0303C17.9438 27.171 18.1346 27.25 18.3335 27.25H26.3335C26.5324 27.25 26.7232 27.171 26.8638 27.0303C27.0045 26.8897 27.0835 26.6989 27.0835 26.5C27.0835 26.3011 27.0045 26.1103 26.8638 25.9697C26.7232 25.829 26.5324 25.75 26.3335 25.75H18.3335ZM18.3335 29.25C18.1346 29.25 17.9438 29.329 17.8032 29.4697C17.6625 29.6103 17.5835 29.8011 17.5835 30C17.5835 30.1989 17.6625 30.3897 17.8032 30.5303C17.9438 30.671 18.1346 30.75 18.3335 30.75H23.8335C24.0324 30.75 24.2232 30.671 24.3638 30.5303C24.5045 30.3897 24.5835 30.1989 24.5835 30C24.5835 29.8011 24.5045 29.6103 24.3638 29.4697C24.2232 29.329 24.0324 29.25 23.8335 29.25H18.3335ZM23.8435 14.26L23.8335 17.095C23.8335 18.192 23.8335 19.161 23.9385 19.943C24.0525 20.79 24.3135 21.637 25.0055 22.328C25.6955 23.019 26.5435 23.281 27.3905 23.395C28.1715 23.5 29.1415 23.5 30.2385 23.5H34.2905C34.3035 23.655 34.3125 23.821 34.3185 24H34.3335C34.3335 23.732 34.3335 23.598 34.3235 23.44C34.2465 22.4898 33.9156 21.5776 33.3655 20.799C33.2715 20.671 33.2075 20.595 33.0805 20.442C32.2875 19.494 31.2435 18.312 30.3335 17.5C29.5235 16.776 28.4125 15.985 27.4435 15.339C26.6115 14.783 26.1955 14.505 25.6245 14.299C25.4584 14.2396 25.2895 14.1882 25.1185 14.145C24.7345 14.05 24.3605 14.017 23.8335 14.005L23.8435 14.26Z" fill="#561AD8"/>
</svg>
