<svg width="220" height="32" viewBox="0 0 220 32" fill="none" xmlns="http://www.w3.org/2000/svg">
<rect x="0.5" y="0.5" width="219" height="31" rx="15.5" fill="white" fill-opacity="0.36"/>
<rect x="0.5" y="0.5" width="219" height="31" rx="15.5" stroke="url(#paint0_linear_1_95)"/>
<path d="M31 12.9999C31.0004 11.7948 30.6898 10.61 30.098 9.56017C29.5063 8.51036 28.6536 7.63108 27.6224 7.00746C26.5912 6.38384 25.4165 6.03701 24.2119 6.00052C23.0074 5.96404 21.8138 6.23915 20.7468 6.79922C19.6797 7.35928 18.7753 8.18534 18.1212 9.19742C17.467 10.2095 17.0852 11.3733 17.0127 12.5763C16.9402 13.7792 17.1795 14.9804 17.7074 16.0637C18.2353 17.1471 19.0339 18.0757 20.026 18.7599L17 23.9999L19.256 24.0929L20.464 25.9999L23.93 19.9959L24 19.9999C24.035 20.0019 24.046 19.9969 24.07 19.9959L27.536 25.9999L28.768 24.1339L31 23.9999L27.974 18.7599C28.9076 18.1171 29.6709 17.2569 30.198 16.2534C30.7252 15.25 31.0004 14.1334 31 12.9999ZM19 12.9999C19 12.011 19.2932 11.0443 19.8427 10.222C20.3921 9.3998 21.173 8.75893 22.0866 8.3805C23.0002 8.00206 24.0055 7.90304 24.9755 8.09597C25.9454 8.28889 26.8363 8.7651 27.5355 9.46436C28.2348 10.1636 28.711 11.0545 28.9039 12.0244C29.0969 12.9943 28.9978 13.9997 28.6194 14.9133C28.241 15.8269 27.6001 16.6078 26.7779 17.1572C25.9556 17.7066 24.9889 17.9999 24 17.9999C22.6739 17.9999 21.4021 17.4731 20.4645 16.5354C19.5268 15.5977 19 14.326 19 12.9999Z" fill="#18CF97"/>
<path d="M24 16C25.6569 16 27 14.6569 27 13C27 11.3431 25.6569 10 24 10C22.3431 10 21 11.3431 21 13C21 14.6569 22.3431 16 24 16Z" fill="#18CF97"/>
<path d="M45.8886 9.672H48.7846C49.3286 9.672 49.8673 9.704 50.4006 9.768C50.9446 9.832 51.43 9.97067 51.8566 10.184C52.2833 10.3973 52.63 10.712 52.8966 11.128C53.1633 11.5333 53.2966 12.088 53.2966 12.792C53.2966 13.624 53.046 14.296 52.5446 14.808C52.0433 15.32 51.35 15.6453 50.4646 15.784L53.6806 21H52.0326L48.9606 15.912H47.2326V21H45.8886V9.672ZM47.2326 14.664H48.4326C48.806 14.664 49.19 14.6533 49.5846 14.632C49.99 14.6107 50.358 14.5413 50.6886 14.424C51.03 14.3067 51.3073 14.1253 51.5206 13.88C51.7446 13.624 51.8566 13.2613 51.8566 12.792C51.8566 12.3867 51.7766 12.0613 51.6166 11.816C51.4566 11.5707 51.2433 11.384 50.9766 11.256C50.7206 11.1173 50.4273 11.0267 50.0966 10.984C49.7766 10.9413 49.4513 10.92 49.1206 10.92H47.2326V14.664ZM58.5499 9.672H59.8939V21H58.5499V9.672ZM70.9621 11.672C70.7381 11.3093 70.4395 11.048 70.0661 10.888C69.6928 10.7173 69.3035 10.632 68.8981 10.632C68.5995 10.632 68.3061 10.6693 68.0181 10.744C67.7301 10.8187 67.4688 10.9307 67.2341 11.08C67.0101 11.2293 66.8288 11.4267 66.6901 11.672C66.5515 11.9173 66.4821 12.2053 66.4821 12.536C66.4821 12.792 66.5195 13.0213 66.5941 13.224C66.6795 13.416 66.8128 13.592 66.9941 13.752C67.1755 13.912 67.4208 14.0613 67.7301 14.2C68.0395 14.3387 68.4181 14.4773 68.8661 14.616C69.3035 14.7547 69.7248 14.904 70.1301 15.064C70.5461 15.224 70.9088 15.4267 71.2181 15.672C71.5381 15.9173 71.7888 16.2267 71.9701 16.6C72.1621 16.9627 72.2581 17.4213 72.2581 17.976C72.2581 18.5413 72.1461 19.032 71.9221 19.448C71.6981 19.864 71.3995 20.2107 71.0261 20.488C70.6635 20.7547 70.2421 20.952 69.7621 21.08C69.2821 21.2187 68.7861 21.288 68.2741 21.288C67.9435 21.288 67.6128 21.256 67.2821 21.192C66.9515 21.1387 66.6315 21.0533 66.3221 20.936C66.0235 20.808 65.7408 20.648 65.4741 20.456C65.2075 20.2533 64.9781 20.008 64.7861 19.72L65.9381 18.776C66.1835 19.192 66.5248 19.5067 66.9621 19.72C67.3995 19.9333 67.8635 20.04 68.3541 20.04C68.6421 20.04 68.9301 19.9973 69.2181 19.912C69.5168 19.8267 69.7835 19.704 70.0181 19.544C70.2528 19.3733 70.4448 19.1653 70.5941 18.92C70.7435 18.6747 70.8181 18.392 70.8181 18.072C70.8181 17.72 70.7595 17.4373 70.6421 17.224C70.5248 17 70.3435 16.808 70.0981 16.648C69.8528 16.488 69.5435 16.344 69.1701 16.216C68.7968 16.088 68.3595 15.9387 67.8581 15.768C67.4528 15.64 67.0795 15.496 66.7381 15.336C66.3968 15.1653 66.0981 14.9627 65.8421 14.728C65.5968 14.4827 65.3995 14.1947 65.2501 13.864C65.1115 13.5227 65.0421 13.1173 65.0421 12.648C65.0421 12.104 65.1488 11.6293 65.3621 11.224C65.5755 10.8187 65.8635 10.4827 66.2261 10.216C66.5888 9.93867 66.9995 9.73067 67.4581 9.592C67.9168 9.45333 68.3968 9.384 68.8981 9.384C69.5381 9.384 70.1195 9.48533 70.6421 9.688C71.1755 9.88 71.6501 10.2213 72.0661 10.712L70.9621 11.672ZM77.3567 9.672H78.7007V14.568H78.8927L84.0447 9.672H85.9807L80.3807 14.84L86.2527 21H84.2847L78.8927 15.24H78.7007V21H77.3567V9.672ZM89.6109 16.584H93.5309V17.736H89.6109V16.584ZM98.523 9.672H105.547V10.92H99.867V14.664H105.147V15.912H99.867V21H98.523V9.672ZM110.294 9.672H113.19C113.734 9.672 114.272 9.704 114.806 9.768C115.35 9.832 115.835 9.97067 116.262 10.184C116.688 10.3973 117.035 10.712 117.302 11.128C117.568 11.5333 117.702 12.088 117.702 12.792C117.702 13.624 117.451 14.296 116.95 14.808C116.448 15.32 115.755 15.6453 114.87 15.784L118.086 21H116.438L113.366 15.912H111.638V21H110.294V9.672ZM111.638 14.664H112.838C113.211 14.664 113.595 14.6533 113.99 14.632C114.395 14.6107 114.763 14.5413 115.094 14.424C115.435 14.3067 115.712 14.1253 115.926 13.88C116.15 13.624 116.262 13.2613 116.262 12.792C116.262 12.3867 116.182 12.0613 116.022 11.816C115.862 11.5707 115.648 11.384 115.382 11.256C115.126 11.1173 114.832 11.0267 114.502 10.984C114.182 10.9413 113.856 10.92 113.526 10.92H111.638V14.664ZM122.955 9.672H130.075V10.92H124.299V14.472H129.691V15.72H124.299V19.752H130.363V21H122.955V9.672ZM135.319 9.672H142.439V10.92H136.663V14.472H142.055V15.72H136.663V19.752H142.727V21H135.319V9.672ZM162.617 10.92H158.873V21H157.529V10.92H153.785V9.672H162.617V10.92ZM167.084 9.672H169.98C170.524 9.672 171.063 9.704 171.596 9.768C172.14 9.832 172.626 9.97067 173.052 10.184C173.479 10.3973 173.826 10.712 174.092 11.128C174.359 11.5333 174.492 12.088 174.492 12.792C174.492 13.624 174.242 14.296 173.74 14.808C173.239 15.32 172.546 15.6453 171.66 15.784L174.876 21H173.228L170.156 15.912H168.428V21H167.084V9.672ZM168.428 14.664H169.628C170.002 14.664 170.386 14.6533 170.78 14.632C171.186 14.6107 171.554 14.5413 171.884 14.424C172.226 14.3067 172.503 14.1253 172.716 13.88C172.94 13.624 173.052 13.2613 173.052 12.792C173.052 12.3867 172.972 12.0613 172.812 11.816C172.652 11.5707 172.439 11.384 172.172 11.256C171.916 11.1173 171.623 11.0267 171.292 10.984C170.972 10.9413 170.647 10.92 170.316 10.92H168.428V14.664ZM179.745 9.672H181.089V21H179.745V9.672ZM190.462 9.672H191.726L196.542 21H194.974L193.822 18.216H188.158L186.99 21H185.47L190.462 9.672ZM191.07 11.4H191.038L188.686 16.968H193.31L191.07 11.4ZM200.927 9.672H202.271V19.752H207.455V21H200.927V9.672Z" fill="black"/>
<defs>
<linearGradient id="paint0_linear_1_95" x1="144.5" y1="5.5" x2="121.5" y2="48" gradientUnits="userSpaceOnUse">
<stop stop-color="#666666" stop-opacity="0.1"/>
<stop offset="0.715"/>
<stop offset="1" stop-color="#666666" stop-opacity="0"/>
</linearGradient>
</defs>
</svg>
