<svg width="48" height="48" viewBox="0 0 48 48" fill="none" xmlns="http://www.w3.org/2000/svg">
<rect width="48" height="48" rx="9" fill="#FF5E05" fill-opacity="0.16"/>
<path d="M29 25H19C18.7348 25 18.4804 24.8946 18.2929 24.7071C18.1054 24.5196 18 24.2652 18 24C18 23.7348 18.1054 23.4804 18.2929 23.2929C18.4804 23.1054 18.7348 23 19 23H29C29.2652 23 29.5196 23.1054 29.7071 23.2929C29.8946 23.4804 30 23.7348 30 24C30 24.2652 29.8946 24.5196 29.7071 24.7071C29.5196 24.8946 29.2652 25 29 25Z" fill="#FF5E05"/>
<path opacity="0.5" d="M23.9995 14C22.1067 13.9997 20.2526 14.5367 18.6528 15.5485C17.0531 16.5602 15.7733 18.0053 14.9623 19.7156C14.1514 21.426 13.8425 23.3314 14.0716 25.2103C14.3007 27.0893 15.0583 28.8646 16.2565 30.33L14.2925 32.293C14.1527 32.4329 14.0575 32.611 14.019 32.805C13.9804 32.9989 14.0002 33.2 14.0759 33.3827C14.1515 33.5654 14.2797 33.7215 14.4441 33.8314C14.6085 33.9413 14.8018 34 14.9995 34H23.9995C26.6517 34 29.1952 32.9464 31.0706 31.0711C32.946 29.1957 33.9995 26.6522 33.9995 24C33.9995 21.3478 32.946 18.8043 31.0706 16.9289C29.1952 15.0536 26.6517 14 23.9995 14ZM20.9995 19H26.9995C27.2648 19 27.5191 19.1054 27.7066 19.2929C27.8942 19.4804 27.9995 19.7348 27.9995 20C27.9995 20.2652 27.8942 20.5196 27.7066 20.7071C27.5191 20.8946 27.2648 21 26.9995 21H20.9995C20.7343 21 20.48 20.8946 20.2924 20.7071C20.1049 20.5196 19.9995 20.2652 19.9995 20C19.9995 19.7348 20.1049 19.4804 20.2924 19.2929C20.48 19.1054 20.7343 19 20.9995 19ZM26.9995 29H20.9995C20.7343 29 20.48 28.8946 20.2924 28.7071C20.1049 28.5196 19.9995 28.2652 19.9995 28C19.9995 27.7348 20.1049 27.4804 20.2924 27.2929C20.48 27.1054 20.7343 27 20.9995 27H26.9995C27.2648 27 27.5191 27.1054 27.7066 27.2929C27.8942 27.4804 27.9995 27.7348 27.9995 28C27.9995 28.2652 27.8942 28.5196 27.7066 28.7071C27.5191 28.8946 27.2648 29 26.9995 29ZM28.9995 25H18.9995C18.7343 25 18.48 24.8946 18.2924 24.7071C18.1049 24.5196 17.9995 24.2652 17.9995 24C17.9995 23.7348 18.1049 23.4804 18.2924 23.2929C18.48 23.1054 18.7343 23 18.9995 23H28.9995C29.2648 23 29.5191 23.1054 29.7066 23.2929C29.8942 23.4804 29.9995 23.7348 29.9995 24C29.9995 24.2652 29.8942 24.5196 29.7066 24.7071C29.5191 24.8946 29.2648 25 28.9995 25Z" fill="#FF5E05"/>
<path d="M27 29H21C20.7348 29 20.4804 28.8946 20.2929 28.7071C20.1054 28.5196 20 28.2652 20 28C20 27.7348 20.1054 27.4804 20.2929 27.2929C20.4804 27.1054 20.7348 27 21 27H27C27.2652 27 27.5196 27.1054 27.7071 27.2929C27.8946 27.4804 28 27.7348 28 28C28 28.2652 27.8946 28.5196 27.7071 28.7071C27.5196 28.8946 27.2652 29 27 29ZM27 21H21C20.7348 21 20.4804 20.8946 20.2929 20.7071C20.1054 20.5196 20 20.2652 20 20C20 19.7348 20.1054 19.4804 20.2929 19.2929C20.4804 19.1054 20.7348 19 21 19H27C27.2652 19 27.5196 19.1054 27.7071 19.2929C27.8946 19.4804 28 19.7348 28 20C28 20.2652 27.8946 20.5196 27.7071 20.7071C27.5196 20.8946 27.2652 21 27 21Z" fill="#FF5E05"/>
</svg>
