<svg width="17" height="16" viewBox="0 0 17 16" fill="none" xmlns="http://www.w3.org/2000/svg">
<g clip-path="url(#clip0_1_2066)">
<path d="M6.07338 0.526126C4.47473 1.08071 3.09606 2.13333 2.13987 3.52938C1.18367 4.92542 0.700366 6.59131 0.76093 8.28233C0.821493 9.97336 1.42274 11.6004 2.47635 12.9245C3.52996 14.2485 4.9804 15.1998 6.61463 15.6386C7.93953 15.9805 9.32764 15.9955 10.6596 15.6824C11.8663 15.4113 12.9819 14.8316 13.8971 13.9999C14.8497 13.1078 15.5412 11.973 15.8971 10.7174C16.284 9.35196 16.3529 7.91604 16.0984 6.51988H8.65838V9.60613H12.9671C12.881 10.0984 12.6965 10.5682 12.4246 10.9874C12.1527 11.4067 11.7989 11.7668 11.3846 12.0461C10.8585 12.3942 10.2654 12.6283 9.64338 12.7336C9.01956 12.8496 8.3797 12.8496 7.75588 12.7336C7.12361 12.6029 6.5255 12.3419 5.99963 11.9674C5.15481 11.3694 4.52047 10.5198 4.18713 9.53988C3.84815 8.54162 3.84815 7.45938 4.18713 6.46113C4.42441 5.7614 4.81667 5.12429 5.33463 4.59738C5.92737 3.98331 6.67779 3.54437 7.50357 3.32872C8.32935 3.11307 9.19858 3.12904 10.0159 3.37488C10.6543 3.57086 11.2382 3.9133 11.7209 4.37488C12.2067 3.89154 12.6917 3.40696 13.1759 2.92113C13.4259 2.65988 13.6984 2.41113 13.9446 2.14363C13.2078 1.45797 12.343 0.924447 11.3996 0.573626C9.68176 -0.0501371 7.8021 -0.0669002 6.07338 0.526126Z" fill="white"/>
<path d="M6.07445 0.526245C7.80303 -0.067184 9.68269 -0.0508623 11.4007 0.572495C12.3442 0.925699 13.2087 1.46179 13.9445 2.14999C13.6945 2.41749 13.4307 2.66749 13.1757 2.92749C12.6907 3.41166 12.2061 3.89416 11.722 4.37499C11.2393 3.91342 10.6554 3.57098 10.017 3.37499C9.19992 3.1283 8.33073 3.1114 7.50473 3.32617C6.67873 3.54094 5.92784 3.97907 5.33445 4.59249C4.81649 5.11941 4.42424 5.75652 4.18695 6.45624L1.5957 4.44999C2.52321 2.6107 4.12914 1.20377 6.07445 0.526245Z" fill="#E33629"/>
<path d="M0.90695 6.4377C1.04623 5.74744 1.27745 5.07898 1.59445 4.4502L4.1857 6.46145C3.84672 7.4597 3.84672 8.54194 4.1857 9.5402C3.32237 10.2069 2.45862 10.8769 1.59445 11.5502C0.800888 9.97059 0.558865 8.17082 0.90695 6.4377Z" fill="#F8BD00"/>
<path d="M8.65876 6.5188H16.0988C16.3533 7.91496 16.2844 9.35088 15.8975 10.7163C15.5416 11.9719 14.8501 13.1067 13.8975 13.9988C13.0613 13.3463 12.2213 12.6988 11.385 12.0463C11.7996 11.7666 12.1535 11.4062 12.4254 10.9865C12.6973 10.5668 12.8817 10.0965 12.9675 9.6038H8.65876C8.65751 8.5763 8.65876 7.54755 8.65876 6.5188Z" fill="#587DBD"/>
<path d="M1.59375 11.55C2.45792 10.8834 3.32167 10.2134 4.185 9.54004C4.51901 10.5203 5.15426 11.3699 6 11.9675C6.52751 12.3404 7.12691 12.5992 7.76 12.7275C8.38382 12.8435 9.02368 12.8435 9.6475 12.7275C10.2695 12.6223 10.8626 12.3881 11.3888 12.04C12.225 12.6925 13.065 13.34 13.9012 13.9925C12.9861 14.8247 11.8705 15.4049 10.6637 15.6763C9.33176 15.9894 7.94365 15.9744 6.61875 15.6325C5.57088 15.3528 4.59209 14.8595 3.74375 14.1838C2.84583 13.4709 2.11244 12.5725 1.59375 11.55Z" fill="#319F43"/>
</g>
<defs>
<clipPath id="clip0_1_2066">
<rect width="16" height="16" fill="white" transform="translate(0.5)"/>
</clipPath>
</defs>
</svg>
