<svg width="24" height="24" viewBox="0 0 24 24" fill="none" xmlns="http://www.w3.org/2000/svg">
<path d="M19 8.99989C19.0004 7.7948 18.6898 6.60999 18.098 5.56017C17.5063 4.51036 16.6536 3.63108 15.6224 3.00746C14.5912 2.38384 13.4165 2.03701 12.2119 2.00052C11.0074 1.96404 9.81381 2.23915 8.74676 2.79922C7.67972 3.35928 6.77533 4.18534 6.12116 5.19742C5.46698 6.20951 5.08517 7.37334 5.01268 8.57625C4.94019 9.77917 5.17948 10.9804 5.70739 12.0637C6.23529 13.1471 7.03393 14.0757 8.026 14.7599L5 19.9999L7.256 20.0929L8.464 21.9999L11.93 15.9959L12 15.9999C12.035 16.0019 12.046 15.9969 12.07 15.9959L15.536 21.9999L16.768 20.1339L19 19.9999L15.974 14.7599C16.9076 14.1171 17.6709 13.2569 18.198 12.2534C18.7252 11.25 19.0004 10.1334 19 8.99989ZM7 8.99989C7 8.01099 7.29325 7.04429 7.84265 6.22204C8.39206 5.3998 9.17295 4.75893 10.0866 4.3805C11.0002 4.00206 12.0055 3.90304 12.9755 4.09597C13.9454 4.28889 14.8363 4.7651 15.5355 5.46436C16.2348 6.16362 16.711 7.05454 16.9039 8.02444C17.0969 8.99435 16.9978 9.99968 16.6194 10.9133C16.241 11.8269 15.6001 12.6078 14.7779 13.1572C13.9556 13.7066 12.9889 13.9999 12 13.9999C10.6739 13.9999 9.40215 13.4731 8.46447 12.5354C7.52679 11.5977 7 10.326 7 8.99989Z" fill="#18CF97"/>
<path d="M12 12C13.6569 12 15 10.6569 15 9C15 7.34315 13.6569 6 12 6C10.3431 6 9 7.34315 9 9C9 10.6569 10.3431 12 12 12Z" fill="#18CF97"/>
</svg>
