<svg width="48" height="48" viewBox="0 0 48 48" fill="none" xmlns="http://www.w3.org/2000/svg">
<rect width="48" height="48" rx="9" fill="#080607" fill-opacity="0.05"/>
<rect width="48" height="48" rx="9" fill="#F5F5F5"/>
<path opacity="0.2" d="M32.0293 30.8435L30.8424 32.0304C30.7018 32.1709 30.5111 32.2499 30.3123 32.2499C30.1134 32.2499 29.9228 32.1709 29.7821 32.0304L24.9718 27.2201C24.8854 27.1335 24.7792 27.0694 24.6623 27.0332C24.5455 26.9971 24.4216 26.9901 24.3014 27.0129C24.1812 27.0356 24.0684 27.0874 23.9729 27.1637C23.8773 27.24 23.8018 27.3385 23.7531 27.4507L22.0824 31.8016C22.0203 31.9383 21.9186 32.0533 21.7905 32.1315C21.6624 32.2098 21.5137 32.2478 21.3638 32.2406C21.2138 32.2334 21.0694 32.1814 20.9493 32.0913C20.8293 32.0012 20.739 31.8771 20.6902 31.7351L15.7871 16.7285C15.747 16.5982 15.7432 16.4594 15.776 16.3271C15.8089 16.1948 15.8772 16.0739 15.9736 15.9775C16.07 15.8811 16.1909 15.8128 16.3232 15.7799C16.4555 15.7471 16.5943 15.7509 16.7246 15.791L31.734 20.6885C31.876 20.7373 32.0001 20.8276 32.0902 20.9476C32.1803 21.0677 32.2324 21.2121 32.2395 21.362C32.2467 21.512 32.2087 21.6607 32.1304 21.7888C32.0522 21.9169 31.9373 22.0186 31.8006 22.0807L27.4496 23.7513C27.3375 23.8001 27.2389 23.8756 27.1626 23.9711C27.0863 24.0667 27.0345 24.1795 27.0118 24.2997C26.989 24.4198 26.996 24.5438 27.0321 24.6606C27.0683 24.7775 27.1324 24.8837 27.219 24.9701L32.0293 29.7804C32.0993 29.8501 32.1549 29.9329 32.1928 30.0241C32.2307 30.1154 32.2502 30.2132 32.2502 30.312C32.2502 30.4107 32.2307 30.5086 32.1928 30.5998C32.1549 30.691 32.0993 30.7738 32.0293 30.8435Z" fill="#080607"/>
<path d="M20.2501 14.25V13.5C20.2501 13.3011 20.3291 13.1103 20.4697 12.9697C20.6104 12.829 20.8011 12.75 21.0001 12.75C21.199 12.75 21.3897 12.829 21.5304 12.9697C21.671 13.1103 21.7501 13.3011 21.7501 13.5V14.25C21.7501 14.4489 21.671 14.6397 21.5304 14.7803C21.3897 14.921 21.199 15 21.0001 15C20.8011 15 20.6104 14.921 20.4697 14.7803C20.3291 14.6397 20.2501 14.4489 20.2501 14.25ZM13.5001 21.75H14.2501C14.449 21.75 14.6397 21.671 14.7804 21.5303C14.921 21.3897 15.0001 21.1989 15.0001 21C15.0001 20.8011 14.921 20.6103 14.7804 20.4697C14.6397 20.329 14.449 20.25 14.2501 20.25H13.5001C13.3011 20.25 13.1104 20.329 12.9697 20.4697C12.8291 20.6103 12.7501 20.8011 12.7501 21C12.7501 21.1989 12.8291 21.3897 12.9697 21.5303C13.1104 21.671 13.3011 21.75 13.5001 21.75ZM23.6644 15.6713C23.7526 15.7154 23.8485 15.7417 23.9469 15.7487C24.0452 15.7558 24.1439 15.7433 24.2374 15.7122C24.331 15.681 24.4174 15.6317 24.4919 15.5671C24.5663 15.5025 24.6273 15.4238 24.6713 15.3356L25.4213 13.8356C25.5103 13.6577 25.525 13.4517 25.4622 13.263C25.3993 13.0743 25.2641 12.9182 25.0862 12.8292C24.9083 12.7402 24.7023 12.7255 24.5135 12.7884C24.3248 12.8512 24.1688 12.9865 24.0798 13.1644L23.3297 14.6644C23.2856 14.7525 23.2592 14.8484 23.2521 14.9467C23.245 15.0449 23.2574 15.1437 23.2885 15.2372C23.3195 15.3307 23.3687 15.4171 23.4333 15.4916C23.4978 15.5661 23.5763 15.6271 23.6644 15.6713ZM14.6644 23.3297L13.1644 24.0797C12.9865 24.1687 12.8513 24.3247 12.7884 24.5135C12.7256 24.7022 12.7403 24.9082 12.8293 25.0861C12.9183 25.264 13.0743 25.3993 13.2631 25.4621C13.4518 25.525 13.6578 25.5103 13.8357 25.4213L15.3357 24.6713C15.4238 24.6272 15.5023 24.5662 15.5668 24.4918C15.6314 24.4173 15.6806 24.3309 15.7117 24.2375C15.7428 24.144 15.7552 24.0453 15.7482 23.9471C15.7412 23.8488 15.7149 23.7529 15.6708 23.6648C15.6268 23.5768 15.5658 23.4982 15.4913 23.4337C15.4169 23.3692 15.3305 23.32 15.2371 23.2888C15.1436 23.2577 15.0449 23.2453 14.9467 23.2523C14.8484 23.2593 14.7525 23.2856 14.6644 23.3297ZM32.5604 29.25C32.6997 29.3893 32.8102 29.5547 32.8856 29.7367C32.961 29.9187 32.9998 30.1138 32.9998 30.3108C32.9998 30.5078 32.961 30.7029 32.8856 30.8849C32.8102 31.0669 32.6997 31.2323 32.5604 31.3716L31.3716 32.5603C31.2323 32.6996 31.067 32.8102 30.8849 32.8856C30.7029 32.961 30.5079 32.9998 30.3108 32.9998C30.1138 32.9998 29.9187 32.961 29.7367 32.8856C29.5547 32.8102 29.3894 32.6996 29.2501 32.5603L24.4407 27.75L22.7813 32.0709C22.7813 32.0803 22.7738 32.0906 22.7691 32.1009C22.6543 32.3686 22.4634 32.5965 22.22 32.7564C21.9766 32.9162 21.6916 33.001 21.4004 33H21.3263C21.0226 32.9871 20.7302 32.8813 20.4886 32.6969C20.247 32.5125 20.0678 32.2583 19.9754 31.9688L15.0751 16.9613C14.9909 16.6988 14.9808 16.4182 15.0456 16.1503C15.1105 15.8825 15.2479 15.6377 15.4428 15.4428C15.6377 15.2479 15.8825 15.1104 16.1504 15.0456C16.4183 14.9807 16.6988 14.9909 16.9613 15.075L31.9688 19.9753C32.2556 20.0713 32.5068 20.2517 32.6892 20.4929C32.8717 20.7341 32.977 21.0248 32.9913 21.3269C33.0056 21.629 32.9282 21.9284 32.7693 22.1858C32.6104 22.4431 32.3775 22.6465 32.101 22.7691L32.071 22.7812L27.7501 24.4397L32.5604 29.25ZM31.5001 30.3103L26.6897 25.5C26.5166 25.3272 26.3884 25.1146 26.3162 24.8809C26.244 24.6471 26.2301 24.3993 26.2757 24.1589C26.3213 23.9186 26.4249 23.693 26.5777 23.5019C26.7304 23.3108 26.9275 23.1599 27.1519 23.0625L27.1819 23.0494L31.4897 21.3956L16.5001 16.5L21.3938 31.4869L23.0485 27.1744C23.0485 27.1641 23.056 27.1538 23.0607 27.1434C23.1582 26.9192 23.309 26.7222 23.5 26.5696C23.691 26.417 23.9164 26.3134 24.1566 26.2678C24.2494 26.2506 24.3435 26.2418 24.4379 26.2416C24.8353 26.242 25.2163 26.4001 25.4972 26.6813L30.3104 31.5L31.5001 30.3103Z" fill="#080607"/>
</svg>
