<svg width="48" height="48" viewBox="0 0 48 48" fill="none" xmlns="http://www.w3.org/2000/svg">
<rect width="48" height="48" rx="9" fill="#080607" fill-opacity="0.05"/>
<rect width="48" height="48" rx="9" fill="#F5F5F5"/>
<path opacity="0.2" d="M31.5 16.5V32.25C31.5 32.4489 31.421 32.6397 31.2803 32.7803C31.1397 32.921 30.9489 33 30.75 33H17.25C17.0511 33 16.8603 32.921 16.7197 32.7803C16.579 32.6397 16.5 32.4489 16.5 32.25V16.5C16.5 16.3011 16.579 16.1103 16.7197 15.9697C16.8603 15.829 17.0511 15.75 17.25 15.75H21C20.5121 16.3986 20.2488 17.1884 20.25 18V18.75H27.75V18C27.7512 17.1884 27.4879 16.3986 27 15.75H30.75C30.9489 15.75 31.1397 15.829 31.2803 15.9697C31.421 16.1103 31.5 16.3011 31.5 16.5Z" fill="#080607"/>
<path d="M27.75 26.25C27.75 26.4489 27.671 26.6397 27.5303 26.7803C27.3897 26.921 27.1989 27 27 27H21C20.8011 27 20.6103 26.921 20.4697 26.7803C20.329 26.6397 20.25 26.4489 20.25 26.25C20.25 26.0511 20.329 25.8603 20.4697 25.7197C20.6103 25.579 20.8011 25.5 21 25.5H27C27.1989 25.5 27.3897 25.579 27.5303 25.7197C27.671 25.8603 27.75 26.0511 27.75 26.25ZM27 22.5H21C20.8011 22.5 20.6103 22.579 20.4697 22.7197C20.329 22.8603 20.25 23.0511 20.25 23.25C20.25 23.4489 20.329 23.6397 20.4697 23.7803C20.6103 23.921 20.8011 24 21 24H27C27.1989 24 27.3897 23.921 27.5303 23.7803C27.671 23.6397 27.75 23.4489 27.75 23.25C27.75 23.0511 27.671 22.8603 27.5303 22.7197C27.3897 22.579 27.1989 22.5 27 22.5ZM32.25 16.5V32.25C32.25 32.6478 32.092 33.0293 31.8107 33.3106C31.5294 33.592 31.1478 33.75 30.75 33.75H17.25C16.8522 33.75 16.4706 33.592 16.1893 33.3106C15.908 33.0293 15.75 32.6478 15.75 32.25V16.5C15.75 16.1022 15.908 15.7206 16.1893 15.4393C16.4706 15.158 16.8522 15 17.25 15H20.6494C21.0708 14.5282 21.5871 14.1507 22.1645 13.8922C22.7419 13.6337 23.3674 13.5001 24 13.5001C24.6326 13.5001 25.2581 13.6337 25.8355 13.8922C26.4129 14.1507 26.9292 14.5282 27.3506 15H30.75C31.1478 15 31.5294 15.158 31.8107 15.4393C32.092 15.7206 32.25 16.1022 32.25 16.5ZM21 18H27C27 17.2043 26.6839 16.4413 26.1213 15.8787C25.5587 15.3161 24.7956 15 24 15C23.2044 15 22.4413 15.3161 21.8787 15.8787C21.3161 16.4413 21 17.2043 21 18ZM30.75 16.5H28.2422C28.4128 16.9817 28.5 17.489 28.5 18V18.75C28.5 18.9489 28.421 19.1397 28.2803 19.2803C28.1397 19.421 27.9489 19.5 27.75 19.5H20.25C20.0511 19.5 19.8603 19.421 19.7197 19.2803C19.579 19.1397 19.5 18.9489 19.5 18.75V18C19.5 17.489 19.5872 16.9817 19.7578 16.5H17.25V32.25H30.75V16.5Z" fill="#080607"/>
</svg>
