<svg width="12" height="12" viewBox="0 0 12 12" fill="none" xmlns="http://www.w3.org/2000/svg">
<path d="M8.76159 6.04969L6.34237 5.15906L5.45175 2.73797C5.39901 2.59469 5.30358 2.47103 5.17836 2.38368C5.05313 2.29633 4.90412 2.2495 4.75144 2.2495C4.59875 2.2495 4.44975 2.29633 4.32452 2.38368C4.19929 2.47103 4.10387 2.59469 4.05112 2.73797L3.15956 5.15625L0.738468 6.04688C0.595185 6.09962 0.471527 6.19504 0.38418 6.32027C0.296833 6.4455 0.25 6.59451 0.25 6.74719C0.25 6.89987 0.296833 7.04888 0.38418 7.17411C0.471527 7.29934 0.595185 7.39476 0.738468 7.4475L3.15628 8.34375L4.04691 10.7634C4.09965 10.9067 4.19507 11.0304 4.3203 11.1177C4.44553 11.2051 4.59454 11.2519 4.74722 11.2519C4.8999 11.2519 5.04891 11.2051 5.17414 11.1177C5.29937 11.0304 5.39479 10.9067 5.44753 10.7634L6.33816 8.34422L8.75925 7.45359C8.90253 7.40085 9.02619 7.30543 9.11354 7.1802C9.20088 7.05497 9.24772 6.90596 9.24772 6.75328C9.24772 6.6006 9.20088 6.45159 9.11354 6.32636C9.02619 6.20113 8.90253 6.10571 8.75925 6.05297L8.76159 6.04969ZM6.08081 7.64062C5.97947 7.67782 5.88744 7.73662 5.81111 7.81296C5.73478 7.88929 5.67598 7.98132 5.63878 8.08266L4.74816 10.4948L3.85941 8.08078C3.82218 7.97998 3.76356 7.88843 3.68758 7.81245C3.6116 7.73647 3.52005 7.67785 3.41925 7.64062L1.00706 6.75L3.41925 5.85938C3.52005 5.82215 3.6116 5.76353 3.68758 5.68755C3.76356 5.61157 3.82218 5.52002 3.85941 5.41922L4.75003 3.00703L5.64066 5.41922C5.67785 5.52056 5.73666 5.61259 5.81299 5.68892C5.88932 5.76525 5.98135 5.82406 6.08269 5.86125L8.49487 6.75187L6.08081 7.64062ZM6.25003 1.875C6.25003 1.77554 6.28954 1.68016 6.35987 1.60984C6.43019 1.53951 6.52557 1.5 6.62503 1.5H7.37503V0.75C7.37503 0.650544 7.41454 0.555161 7.48487 0.484835C7.55519 0.414509 7.65057 0.375 7.75003 0.375C7.84949 0.375 7.94487 0.414509 8.0152 0.484835C8.08552 0.555161 8.12503 0.650544 8.12503 0.75V1.5H8.87503C8.97449 1.5 9.06987 1.53951 9.1402 1.60984C9.21052 1.68016 9.25003 1.77554 9.25003 1.875C9.25003 1.97446 9.21052 2.06984 9.1402 2.14016C9.06987 2.21049 8.97449 2.25 8.87503 2.25H8.12503V3C8.12503 3.09946 8.08552 3.19484 8.0152 3.26516C7.94487 3.33549 7.84949 3.375 7.75003 3.375C7.65057 3.375 7.55519 3.33549 7.48487 3.26516C7.41454 3.19484 7.37503 3.09946 7.37503 3V2.25H6.62503C6.52557 2.25 6.43019 2.21049 6.35987 2.14016C6.28954 2.06984 6.25003 1.97446 6.25003 1.875ZM11.125 4.125C11.125 4.22446 11.0855 4.31984 11.0152 4.39016C10.9449 4.46049 10.8495 4.5 10.75 4.5H10.375V4.875C10.375 4.97446 10.3355 5.06984 10.2652 5.14016C10.1949 5.21049 10.0995 5.25 10 5.25C9.90057 5.25 9.80519 5.21049 9.73487 5.14016C9.66454 5.06984 9.62503 4.97446 9.62503 4.875V4.5H9.25003C9.15057 4.5 9.05519 4.46049 8.98487 4.39016C8.91454 4.31984 8.87503 4.22446 8.87503 4.125C8.87503 4.02554 8.91454 3.93016 8.98487 3.85984C9.05519 3.78951 9.15057 3.75 9.25003 3.75H9.62503V3.375C9.62503 3.27554 9.66454 3.18016 9.73487 3.10984C9.80519 3.03951 9.90057 3 10 3C10.0995 3 10.1949 3.03951 10.2652 3.10984C10.3355 3.18016 10.375 3.27554 10.375 3.375V3.75H10.75C10.8495 3.75 10.9449 3.78951 11.0152 3.85984C11.0855 3.93016 11.125 4.02554 11.125 4.125Z" fill="#050505"/>
</svg>
